<?xml version="1.0" standalone="no"?>
<!DOCTYPE svg PUBLIC "-//W3C//DTD SVG 20010904//EN"
 "http://www.w3.org/TR/2001/REC-SVG-20010904/DTD/svg10.dtd">
<svg version="1.0" xmlns="http://www.w3.org/2000/svg"
 width="680.000000pt" height="680.000000pt" viewBox="0 0 680.000000 680.000000"
 preserveAspectRatio="xMidYMid meet">
<metadata>
Created by potrace 1.11, written by Peter Selinger 2001-2013
</metadata>
<g transform="translate(0.000000,680.000000) scale(0.100000,-0.100000)"
fill="#000000" stroke="none">
<path d="M4918 6476 c-1 -2 -60 -6 -130 -10 -70 -3 -133 -8 -140 -11 -7 -2
-31 -6 -53 -9 -22 -2 -74 -12 -115 -21 -104 -23 -105 -23 -107 -25 -2 -2 -6
-3 -10 -4 -90 -24 -213 -70 -308 -116 -83 -40 -187 -99 -206 -116 -8 -8 -19
-14 -23 -14 -9 0 -80 -52 -84 -62 -2 -5 -8 -8 -13 -8 -23 0 -218 -183 -293
-276 l-44 -53 -25 32 c-41 54 -168 181 -242 241 -102 84 -104 86 -114 86 -5 0
-11 4 -13 8 -5 15 -171 110 -279 161 -90 42 -231 96 -279 106 -8 2 -16 4 -17
5 -2 2 -6 3 -10 4 -5 1 -24 6 -43 11 -19 5 -42 10 -50 11 -8 2 -27 6 -43 9
-81 16 -166 28 -217 30 -25 2 -47 4 -50 5 -13 5 -255 1 -331 -5 -47 -4 -137
-17 -200 -31 -153 -32 -150 -31 -243 -63 -238 -83 -406 -177 -610 -341 -97
-78 -249 -249 -335 -378 -49 -72 -141 -253 -141 -275 0 -8 -3 -17 -7 -19 -9
-3 -64 -170 -69 -208 -2 -14 -11 -61 -20 -105 -18 -89 -24 -342 -10 -440 5
-33 10 -69 11 -80 2 -11 8 -40 14 -65 7 -25 13 -52 15 -61 27 -112 95 -274
162 -389 39 -67 106 -165 116 -168 4 -2 8 -8 8 -13 0 -21 199 -226 285 -295
28 -21 52 -41 55 -44 3 -3 14 -11 25 -18 11 -7 35 -22 52 -33 18 -12 33 -24
32 -27 0 -4 -44 -38 -97 -77 -116 -85 -277 -242 -358 -350 -70 -92 -137 -195
-127 -195 3 0 -1 -8 -9 -17 -13 -15 -53 -99 -99 -208 -11 -27 -50 -155 -55
-182 -2 -13 -7 -35 -10 -50 -28 -133 -39 -395 -20 -508 51 -306 143 -522 324
-764 60 -80 199 -223 277 -286 28 -22 52 -42 55 -45 30 -30 179 -122 292 -180
124 -64 349 -145 458 -165 14 -3 36 -7 50 -10 42 -9 126 -20 225 -31 46 -4
274 -4 325 0 69 7 182 22 220 30 14 3 34 8 45 10 403 84 797 317 1049 621 l39
47 41 -47 c114 -130 306 -305 334 -305 6 0 12 -4 14 -9 4 -10 152 -103 196
-122 17 -8 32 -17 32 -21 0 -5 5 -8 12 -8 6 0 38 -13 72 -29 82 -38 278 -105
328 -111 4 -1 22 -6 40 -11 31 -9 48 -12 116 -24 48 -8 116 -16 162 -20 55 -5
294 -5 335 -1 17 2 57 7 90 10 33 4 101 15 150 26 50 11 101 23 115 26 31 7
198 61 225 74 72 32 235 113 260 127 40 24 149 96 155 103 3 3 23 18 45 35 90
67 235 210 299 295 22 30 44 57 47 60 12 10 109 170 109 180 0 5 5 10 10 10 6
0 10 6 10 13 0 6 7 26 16 42 47 87 122 306 130 379 2 17 6 42 9 56 24 100 24
363 -1 510 -42 253 -177 511 -373 710 -83 84 -210 193 -262 225 -9 6 -41 26
-70 46 -63 43 -123 77 -239 136 -46 24 -90 49 -97 55 -7 6 -13 8 -13 5 0 -5
-46 14 -155 63 -37 17 -149 58 -230 85 -44 14 -87 29 -95 32 -8 4 -42 14 -75
24 -33 9 -74 22 -92 27 -32 10 -33 10 -39 -24 -3 -19 -10 -34 -15 -34 -4 0 -3
14 3 31 12 34 1 49 -37 49 -12 0 -26 5 -33 12 -7 7 -12 9 -12 6 0 -8 -223 67
-320 107 -166 68 -356 172 -470 258 -92 70 -214 200 -265 281 -48 77 -99 206
-111 281 -10 63 -11 182 -2 249 36 282 192 536 442 721 41 30 79 55 85 55 5 0
17 7 25 16 9 9 22 17 29 18 6 2 39 15 72 31 156 72 321 107 505 108 146 0 227
-11 350 -48 3 -1 19 -5 35 -10 44 -11 181 -81 247 -126 53 -36 147 -123 193
-180 51 -61 141 -209 128 -209 -3 0 1 -8 9 -17 42 -49 101 -301 102 -440 0
-18 5 -34 11 -34 5 -1 155 -3 333 -3 l323 -2 -6 106 c-3 58 -7 116 -10 130 -2
13 -7 42 -10 65 -3 22 -8 48 -11 57 -3 9 -7 26 -9 39 -12 60 -60 208 -96 291
-79 187 -227 398 -375 539 -65 61 -201 169 -214 169 -5 0 -15 6 -22 13 -7 7
-33 24 -58 38 -25 13 -47 26 -50 29 -6 7 -176 84 -215 98 -16 5 -39 13 -50 18
-11 4 -24 8 -30 9 -5 2 -35 10 -66 19 -31 9 -67 19 -80 21 -13 3 -37 8 -54 11
-62 14 -134 22 -255 30 -47 3 -90 7 -97 9 -6 2 -13 2 -15 1z m-2863 -639 c17
-2 44 -7 60 -10 17 -4 45 -9 64 -12 19 -3 38 -8 43 -11 5 -3 18 -7 31 -9 30
-6 138 -50 211 -87 211 -107 399 -294 494 -491 31 -65 54 -121 55 -134 0 -4 6
-23 14 -40 7 -18 11 -33 8 -33 -2 0 0 -12 6 -27 6 -16 13 -90 14 -166 3 -125
11 -230 21 -282 2 -11 7 -36 10 -55 19 -110 94 -300 164 -416 134 -220 350
-421 630 -585 98 -58 366 -189 385 -189 3 0 24 -9 48 -19 83 -37 253 -96 411
-142 77 -22 78 -22 89 -3 6 10 12 24 13 29 2 10 90 260 126 355 11 30 25 68
30 83 6 15 12 26 14 24 4 -4 -102 -334 -115 -357 -7 -13 -19 -59 -24 -87 0 -5
-7 -19 -14 -33 -11 -22 -11 -27 4 -37 9 -7 22 -13 29 -13 25 0 334 -106 419
-144 146 -66 356 -181 375 -206 3 -4 12 -11 21 -16 64 -35 222 -192 273 -269
72 -109 120 -229 130 -326 3 -24 6 -46 6 -49 1 -3 2 -32 2 -65 2 -383 -236
-751 -606 -934 -99 -49 -216 -91 -306 -110 -174 -37 -419 -31 -570 13 -25 7
-47 13 -50 13 -11 -1 -88 27 -138 49 -29 13 -55 24 -57 24 -3 0 -35 18 -71 40
-36 22 -70 40 -74 40 -5 0 -10 3 -12 8 -1 4 -29 26 -60 50 -78 60 -181 170
-235 254 -15 24 -31 44 -35 46 -5 2 -8 12 -8 23 0 10 -4 19 -10 19 -5 0 -9 3
-8 8 0 4 -11 33 -26 65 -47 104 -77 236 -85 383 -1 7 -105 10 -343 10 l-343
-1 -1 -65 c-2 -92 -10 -140 -43 -239 -37 -111 -111 -250 -158 -299 -7 -7 -13
-17 -13 -20 0 -8 -123 -135 -162 -168 -145 -123 -399 -237 -578 -261 -108 -14
-146 -17 -225 -16 -80 0 -113 3 -215 18 -98 15 -231 60 -345 117 -55 28 -102
54 -105 58 -3 4 -19 16 -36 26 -86 53 -274 239 -274 272 0 6 -4 12 -9 14 -23
9 -121 211 -137 283 -4 17 -11 36 -17 43 -5 6 -7 12 -5 12 3 0 -1 30 -8 67
-18 96 -10 289 16 388 30 115 35 129 84 225 131 256 366 452 658 550 63 21 79
26 121 35 12 2 33 7 47 10 91 20 205 27 475 30 132 1 242 3 245 4 8 2 5 589
-3 597 -4 5 -146 9 -315 9 -169 1 -320 5 -337 8 -16 4 -46 9 -65 12 -153 25
-327 96 -475 194 -68 45 -213 181 -267 251 -26 33 -102 158 -104 170 0 3 -11
28 -23 55 -50 111 -74 237 -75 380 0 136 20 252 59 340 7 17 16 40 20 53 4 13
23 52 43 88 158 275 413 467 740 553 41 11 74 17 147 27 28 3 51 7 53 8 3 4
243 -3 277 -7z"/>
</g>
</svg>
