<?xml version="1.0" encoding="utf-8"?>
<!-- Generator: Adobe Illustrator 19.1.0, SVG Export Plug-In . SVG Version: 6.00 Build 0)  -->
<svg version="1.1" id="Layer_1" xmlns="http://www.w3.org/2000/svg" xmlns:xlink="http://www.w3.org/1999/xlink" x="0px" y="0px"
	 viewBox="0 0 85 77" style="enable-background:new 0 0 85 77;" xml:space="preserve">
<style type="text/css">
	.st0{fill:#BBBDBF;}
	.st1{fill:#DBDCDD;}
</style>
<g>
	<g>
		<path class="st0" d="M23.6,34.7c-8.1,0-14.7-6-14.7-13.4c0-7.4,6.6-13.4,14.7-13.4c8.1,0,14.7,6,14.7,13.4h8.4
			c0-11.6-10.4-21.1-23.2-21.1C10.8,0.1,0.4,9.6,0.4,21.2c0,11.6,10.4,21.1,23.2,21.1V34.7z"/>
	</g>
	<g>
		<path class="st1" d="M62.7,34.8c-7.8-2.1-15.9-6.2-15.9-13.6c0-7.4,6.6-13.4,14.7-13.4c8.1,0,13.2,6,13.2,13.4H83
			C83,9.6,74.2,0.1,61.4,0.1c-12.8,0-23.2,9.5-23.2,21.1c0,11.6,9.7,17.6,21.9,21L62.7,34.8z"/>
	</g>
	<g>
		<path class="st1" d="M38.3,55.8c0,11.6,10.4,21.1,23.2,21.1c12.8,0,23.2-9.5,23.2-21.1c0-11.6-9.7-17.6-21.9-21l-2.4,7.4
			c7.8,2.1,15.9,6.2,15.9,13.6c0,7.4-6.6,13.4-14.7,13.4c-8.1,0-14.7-6-14.7-13.4H38.3z"/>
	</g>
	<g>
		<polyline class="st0" points="23.6,34.7 29.8,34.7 29.8,42.3 23.6,42.3 		"/>
		<g>
			<path class="st0" d="M23.6,34.7c-12.8,0-23.2,9.5-23.2,21.1c0,11.6,10.4,21.1,23.2,21.1c12.8,0,23.2-9.5,23.2-21.1h-8.4
				c0,7.4-6.6,13.4-14.7,13.4c-8.1,0-14.7-6-14.7-13.4c0-7.4,6.6-13.4,14.7-13.4V34.7z"/>
		</g>
	</g>
</g>
</svg>
